<svg width="77" height="109" viewBox="0 0 77 109" fill="none" xmlns="http://www.w3.org/2000/svg">
<mask id="path-1-inside-1_1_7" fill="white">
<path d="M33.2196 0.0180482C31.5468 0.0632179 29.8967 0.198727 28.2465 0.44716C25.8052 0.691077 23.364 1.91518 20.674 3.13476C17.2517 4.59825 13.8248 6.06627 10.6466 6.31019C5.2667 8.0176 3.5578 10.4613 2.09302 12.4126C2.09302 12.6565 1.84889 12.9004 1.84889 12.9004C-0.10867 16.8076 -0.352799 20.7148 0.37959 24.622C1.11198 27.0657 2.0885 29.2699 2.82089 31.4652C4.53884 36.1086 6.24775 40.4991 6.98014 45.6304C7.71705 47.0984 8.44491 49.0497 8.93317 51.0056C10.1538 54.9128 11.3835 59.3078 15.05 62.7271L15.0771 62.7136C15.154 62.7994 15.2127 62.8943 15.2941 62.971L15.389 62.9259L15.2986 60.288C18.2282 55.8884 22.3784 52.9569 28.2465 51.7373C30.5974 51.2405 33.1337 51.0598 35.7648 51.1592C38.504 51.233 41.228 51.5902 43.8935 52.2252C50.494 53.9326 55.6252 57.3564 55.8739 60.288C55.996 61.887 56.0547 63.4273 56.0186 64.9675C56.0186 65.2566 56.0005 65.5457 55.9869 65.8393L56.6018 66.1465C56.9719 65.9328 57.29 65.6397 57.5331 65.2882L57.5466 65.2747L57.5738 65.2386C57.7546 64.9946 57.9128 64.6785 58.0711 64.3623C58.1615 64.1951 58.2429 63.9738 58.3242 63.7796C59.251 61.6927 59.9608 58.5715 60.7565 54.9128C61.0006 53.6932 61.2538 52.713 61.4934 51.7373C63.451 47.3423 66.1364 43.4352 68.8263 39.7674C73.2252 33.6695 77.3799 28.0458 76.8916 21.4511C68.8263 5.81784 57.5783 3.37416 51.7101 2.15457C50.7336 1.91066 50.2499 1.91066 49.5175 1.66674C43.4685 0.564601 38.2423 -0.121978 33.2196 0.0180482ZM56.0186 64.9675C56.0443 63.486 55.996 62.0041 55.8739 60.5274C55.6298 57.3519 50.494 53.9326 43.6493 52.2252C41.0597 51.6278 38.4203 51.2709 35.7648 51.1592C33.407 51.0802 31.048 51.2742 28.7348 51.7373C23.1108 52.9569 18.7164 55.8929 16.0265 60.2834L16.2571 66.7472C19.2725 65.1437 24.0918 62.7994 30.4528 62.2303C30.7466 62.2077 31.0676 62.2077 31.375 62.1896C31.904 62.1309 32.5776 61.9909 33.3823 61.9909C40.6474 61.9909 48.1567 64.4029 55.4308 69.4348C55.6072 68.1972 55.7021 66.955 55.7473 65.7174L55.9507 65.8212C55.9598 65.5367 56.014 65.2476 56.0186 64.963V64.9675ZM33.215 0.261965C33.7756 0.243897 34.3634 0.307134 34.9285 0.311651C33.8887 0.302617 32.8534 0.325202 31.8226 0.383923C32.2882 0.356821 32.7494 0.275515 33.215 0.261965ZM29.526 0.587186C29.1824 0.627839 28.8343 0.645907 28.4907 0.695594C24.7971 1.22408 20.4706 3.86199 16.0581 5.41583C17.6631 4.81959 19.2861 4.0788 20.9181 3.38319C23.3594 2.16361 26.0494 0.93951 28.2465 0.695594C28.6715 0.632356 29.101 0.636873 29.526 0.587186ZM28.4907 1.67126C29.2231 1.67126 30.2041 1.67126 30.9365 1.91518C30.3878 1.78971 29.8204 1.76826 29.2638 1.85194C29.7519 1.88802 30.2326 1.99138 30.6924 2.15909C33.3145 6.67606 28.7665 26.0042 27.6227 38.9679C28.2217 43.0794 28.9196 47.176 29.7158 51.254C26.5376 43.1958 23.3594 29.026 22.8666 18.0362C22.6225 13.6412 22.8712 9.72953 23.8522 6.80254C24.8242 3.86199 26.2935 1.91066 28.4862 1.66674L28.4907 1.67126ZM42.6683 2.89084C39.0063 12.4216 38.5181 30.4895 38.2739 36.1086C38.0298 38.5478 38.2739 43.923 38.5181 47.8302C38.5181 48.8058 38.7622 49.7815 38.7622 50.7617C38.7622 49.7815 38.5181 49.0497 38.5181 48.0741C36.5605 33.421 34.1147 15.8365 42.6683 2.89084ZM57.8224 4.60729C56.6018 14.373 51.4705 19.0164 49.7616 28.5472C49.2734 36.1177 48.2923 44.9077 48.0482 52.4781C47.8041 44.9077 48.0482 36.8494 49.2688 28.7866C50.4895 20.4844 53.1794 12.1777 57.8224 4.60729ZM11.8446 7.45298C12.8533 7.44151 13.8266 7.82401 14.5572 8.51898L14.4939 8.48736C15.0952 8.90293 15.6965 9.43141 16.2706 10.2219C15.3484 14.5943 17.4235 23.9173 16.4515 31.3161C16.7951 38.3084 16.7725 45.6801 20.2897 51.4573C15.8592 44.6367 14.9731 35.9325 14.3131 27.8064C13.8022 22.8829 13.3908 18.3344 12.2154 14.6937C11.5643 13.316 10.9992 12.0964 10.4793 10.9807C10.3708 10.8136 10.2804 10.6239 10.1629 10.4658C9.71991 10.0058 9.45959 9.40054 9.43047 8.7629C9.43047 8.51898 9.67008 8.03115 9.91873 8.03115C10.1629 7.78723 10.6466 7.7782 10.8907 7.53428C11.2035 7.47427 11.5262 7.44702 11.8446 7.45298ZM5.75045 10.2219C5.47919 10.3122 5.33452 10.4071 5.11751 10.4974C5.91772 10.3438 6.75409 10.651 7.46839 11.9338C6.61846 15.9629 9.43951 27.1515 9.40335 34.9884C10.8184 43.3358 11.8899 52.3787 16.5102 58.0927C11.1303 51.9903 8.93317 41.2444 7.22426 32.206C5.75496 25.1234 4.52979 19.0164 2.0885 17.0651C1.84437 16.5773 1.60024 16.3288 1.60024 15.841C1.60024 15.1092 1.60024 14.1291 2.0885 13.1534C0.836202 16.0172 0.257525 18.8764 0.415757 21.7402C0.230716 18.7822 0.806572 15.8261 2.0885 13.1534C2.0885 12.9095 2.33263 12.9095 2.33263 12.6656C2.38688 12.5933 2.47278 12.5075 2.53155 12.4352C2.79261 11.985 3.13979 11.5906 3.55328 11.2743C3.80193 10.9988 3.98729 10.7323 4.2721 10.4522C4.03249 10.7052 3.87426 10.9491 3.6663 11.1975C3.78836 11.1162 3.90139 11.0304 4.04606 10.9627C4.25949 10.7232 4.52245 10.5329 4.81673 10.405C5.11102 10.2771 5.4296 10.2146 5.75045 10.2219ZM4.04606 10.9627C4.02797 10.9943 4.00989 11.0078 3.99181 11.044L4.15908 10.9085L4.04606 10.9627ZM70.7748 16.0849L70.7522 16.1527C70.924 16.1301 71.0913 16.0759 71.2631 16.0849C71.0958 16.0759 70.9195 16.1301 70.7432 16.1752C66.8416 28.1091 62.2122 40.0429 57.5828 51.9767C57.5802 51.9815 57.5772 51.9861 57.5738 51.9903C57.1804 54.0907 56.5159 55.9833 55.1325 57.3655C57.09 55.1657 57.3296 51.9858 57.5738 48.0786C57.8179 44.4153 57.8179 40.5082 59.7755 36.5965C59.7755 36.3571 59.78 36.1222 60.0151 35.8783L60.0196 35.8692C60.4581 34.2747 60.9328 32.757 61.4527 31.271C63.3425 25.4441 66.6066 16.9702 70.5533 16.1843C70.6257 16.1572 70.707 16.0985 70.7794 16.0849M20.1857 73.22L18.721 73.7079C19.4534 74.6881 19.9416 75.4243 20.4299 75.6637C20.9501 75.9694 21.5399 76.1374 22.1433 76.1516C22.3874 76.1516 22.8712 76.1516 23.1153 75.9076L26.7863 74.6881C27.0304 74.6881 27.2745 74.4441 27.5187 74.4441C28.0069 74.4441 28.2511 74.4441 28.7393 74.6881L29.9645 75.9076L31.1851 75.6637C30.6969 74.932 29.9645 74.2048 29.4762 73.9608C28.988 73.7169 28.4952 73.464 27.7628 73.464H27.2745L23.3594 74.932H22.6316C22.1388 74.932 21.655 74.932 21.4109 74.6881C21.1668 74.4441 20.674 73.9563 20.1857 73.22ZM45.851 79.3225C44.6304 79.3225 43.6493 79.5754 42.9169 80.3072C41.9404 81.0389 41.6963 82.2585 41.9404 83.7265C41.9404 84.9461 42.4287 85.9218 43.1611 86.902C43.8935 87.8776 44.8745 88.37 45.851 88.37C46.5834 88.37 47.0717 88.117 47.8086 87.8731C49.0292 87.1413 49.522 85.9218 49.522 83.7265C49.522 82.0146 49.0292 80.795 48.2968 80.0678C47.5803 79.5691 46.7241 79.3053 45.851 79.3225ZM25.5611 79.5709C24.3405 79.5709 23.364 79.8193 22.6316 80.5511C21.6505 81.2828 21.4109 82.5024 21.655 83.9704C21.655 85.19 22.1388 86.1657 22.8757 87.1413C23.6126 88.117 24.5846 88.6139 25.5611 88.6139C26.298 88.6139 26.7863 88.3609 27.5187 88.117C28.7393 87.3853 29.2276 86.1657 29.2276 83.9704C29.2276 82.0146 28.7393 80.795 28.0069 80.3117C27.2916 79.8139 26.4372 79.5547 25.5656 79.5709H25.5611ZM25.5611 82.5069C26.298 82.5069 26.7863 82.9948 26.7863 83.7265C26.7863 84.4583 26.0494 84.9461 25.5656 84.9461C24.8287 84.9461 24.345 84.4583 24.345 83.7265C24.345 82.9948 24.8287 82.5069 25.5656 82.5069M45.3673 82.7509C46.0997 82.7509 46.5924 83.2342 46.5924 83.9704C46.5924 84.4583 46.0997 85.19 45.3718 85.19C44.6349 85.19 44.1511 84.7022 44.1511 83.9704C44.1511 83.2342 44.6304 82.7509 45.3673 82.7509ZM33.1517 92.2726L33.8841 93.7361C34.1315 94.2007 34.4626 94.6157 34.8607 94.9602C35.1048 95.2041 35.5976 95.692 36.0813 95.692H36.5741C37.0623 95.692 37.3019 95.692 37.5461 95.4481C37.7902 95.2041 38.2875 95.2041 38.5316 94.9602L39.2595 94.2285C39.5036 93.9845 39.7478 93.7361 39.7478 93.4922C39.9919 93.2483 39.9919 93.0044 40.236 92.7605C40.236 92.5165 40.4802 92.2726 40.4802 92.2726C40.236 92.7605 39.7478 93.2483 39.5036 93.7361C39.0154 93.98 38.7758 94.4724 38.283 94.4724C37.7993 94.7163 37.3065 94.7163 36.8182 94.7163C36.33 94.7163 35.8417 94.7163 35.5976 94.4724C35.1093 94.4724 34.8607 94.2285 34.6165 93.9845L33.8841 93.2483C33.64 93.0044 33.3959 92.5165 33.1517 92.2726ZM29.2366 96.9161C24.1009 96.9161 20.9272 103.755 13.5942 97.6478C11.6412 109.618 26.0629 110.593 32.1752 105.462C36.3345 101.803 35.1048 96.6721 29.2366 96.9161ZM42.1936 96.9161C36.33 96.6721 35.1048 101.803 39.264 105.467C45.3718 110.593 59.789 109.613 57.836 97.6478C50.503 103.755 47.5735 96.9161 42.1936 96.9161Z"/>
</mask>
<path d="M33.2196 0.0180482C31.5468 0.0632179 29.8967 0.198727 28.2465 0.44716C25.8052 0.691077 23.364 1.91518 20.674 3.13476C17.2517 4.59825 13.8248 6.06627 10.6466 6.31019C5.2667 8.0176 3.5578 10.4613 2.09302 12.4126C2.09302 12.6565 1.84889 12.9004 1.84889 12.9004C-0.10867 16.8076 -0.352799 20.7148 0.37959 24.622C1.11198 27.0657 2.0885 29.2699 2.82089 31.4652C4.53884 36.1086 6.24775 40.4991 6.98014 45.6304C7.71705 47.0984 8.44491 49.0497 8.93317 51.0056C10.1538 54.9128 11.3835 59.3078 15.05 62.7271L15.0771 62.7136C15.154 62.7994 15.2127 62.8943 15.2941 62.971L15.389 62.9259L15.2986 60.288C18.2282 55.8884 22.3784 52.9569 28.2465 51.7373C30.5974 51.2405 33.1337 51.0598 35.7648 51.1592C38.504 51.233 41.228 51.5902 43.8935 52.2252C50.494 53.9326 55.6252 57.3564 55.8739 60.288C55.996 61.887 56.0547 63.4273 56.0186 64.9675C56.0186 65.2566 56.0005 65.5457 55.9869 65.8393L56.6018 66.1465C56.9719 65.9328 57.29 65.6397 57.5331 65.2882L57.5466 65.2747L57.5738 65.2386C57.7546 64.9946 57.9128 64.6785 58.0711 64.3623C58.1615 64.1951 58.2429 63.9738 58.3242 63.7796C59.251 61.6927 59.9608 58.5715 60.7565 54.9128C61.0006 53.6932 61.2538 52.713 61.4934 51.7373C63.451 47.3423 66.1364 43.4352 68.8263 39.7674C73.2252 33.6695 77.3799 28.0458 76.8916 21.4511C68.8263 5.81784 57.5783 3.37416 51.7101 2.15457C50.7336 1.91066 50.2499 1.91066 49.5175 1.66674C43.4685 0.564601 38.2423 -0.121978 33.2196 0.0180482ZM56.0186 64.9675C56.0443 63.486 55.996 62.0041 55.8739 60.5274C55.6298 57.3519 50.494 53.9326 43.6493 52.2252C41.0597 51.6278 38.4203 51.2709 35.7648 51.1592C33.407 51.0802 31.048 51.2742 28.7348 51.7373C23.1108 52.9569 18.7164 55.8929 16.0265 60.2834L16.2571 66.7472C19.2725 65.1437 24.0918 62.7994 30.4528 62.2303C30.7466 62.2077 31.0676 62.2077 31.375 62.1896C31.904 62.1309 32.5776 61.9909 33.3823 61.9909C40.6474 61.9909 48.1567 64.4029 55.4308 69.4348C55.6072 68.1972 55.7021 66.955 55.7473 65.7174L55.9507 65.8212C55.9598 65.5367 56.014 65.2476 56.0186 64.963V64.9675ZM33.215 0.261965C33.7756 0.243897 34.3634 0.307134 34.9285 0.311651C33.8887 0.302617 32.8534 0.325202 31.8226 0.383923C32.2882 0.356821 32.7494 0.275515 33.215 0.261965ZM29.526 0.587186C29.1824 0.627839 28.8343 0.645907 28.4907 0.695594C24.7971 1.22408 20.4706 3.86199 16.0581 5.41583C17.6631 4.81959 19.2861 4.0788 20.9181 3.38319C23.3594 2.16361 26.0494 0.93951 28.2465 0.695594C28.6715 0.632356 29.101 0.636873 29.526 0.587186ZM28.4907 1.67126C29.2231 1.67126 30.2041 1.67126 30.9365 1.91518C30.3878 1.78971 29.8204 1.76826 29.2638 1.85194C29.7519 1.88802 30.2326 1.99138 30.6924 2.15909C33.3145 6.67606 28.7665 26.0042 27.6227 38.9679C28.2217 43.0794 28.9196 47.176 29.7158 51.254C26.5376 43.1958 23.3594 29.026 22.8666 18.0362C22.6225 13.6412 22.8712 9.72953 23.8522 6.80254C24.8242 3.86199 26.2935 1.91066 28.4862 1.66674L28.4907 1.67126ZM42.6683 2.89084C39.0063 12.4216 38.5181 30.4895 38.2739 36.1086C38.0298 38.5478 38.2739 43.923 38.5181 47.8302C38.5181 48.8058 38.7622 49.7815 38.7622 50.7617C38.7622 49.7815 38.5181 49.0497 38.5181 48.0741C36.5605 33.421 34.1147 15.8365 42.6683 2.89084ZM57.8224 4.60729C56.6018 14.373 51.4705 19.0164 49.7616 28.5472C49.2734 36.1177 48.2923 44.9077 48.0482 52.4781C47.8041 44.9077 48.0482 36.8494 49.2688 28.7866C50.4895 20.4844 53.1794 12.1777 57.8224 4.60729ZM11.8446 7.45298C12.8533 7.44151 13.8266 7.82401 14.5572 8.51898L14.4939 8.48736C15.0952 8.90293 15.6965 9.43141 16.2706 10.2219C15.3484 14.5943 17.4235 23.9173 16.4515 31.3161C16.7951 38.3084 16.7725 45.6801 20.2897 51.4573C15.8592 44.6367 14.9731 35.9325 14.3131 27.8064C13.8022 22.8829 13.3908 18.3344 12.2154 14.6937C11.5643 13.316 10.9992 12.0964 10.4793 10.9807C10.3708 10.8136 10.2804 10.6239 10.1629 10.4658C9.71991 10.0058 9.45959 9.40054 9.43047 8.7629C9.43047 8.51898 9.67008 8.03115 9.91873 8.03115C10.1629 7.78723 10.6466 7.7782 10.8907 7.53428C11.2035 7.47427 11.5262 7.44702 11.8446 7.45298ZM5.75045 10.2219C5.47919 10.3122 5.33452 10.4071 5.11751 10.4974C5.91772 10.3438 6.75409 10.651 7.46839 11.9338C6.61846 15.9629 9.43951 27.1515 9.40335 34.9884C10.8184 43.3358 11.8899 52.3787 16.5102 58.0927C11.1303 51.9903 8.93317 41.2444 7.22426 32.206C5.75496 25.1234 4.52979 19.0164 2.0885 17.0651C1.84437 16.5773 1.60024 16.3288 1.60024 15.841C1.60024 15.1092 1.60024 14.1291 2.0885 13.1534C0.836202 16.0172 0.257525 18.8764 0.415757 21.7402C0.230716 18.7822 0.806572 15.8261 2.0885 13.1534C2.0885 12.9095 2.33263 12.9095 2.33263 12.6656C2.38688 12.5933 2.47278 12.5075 2.53155 12.4352C2.79261 11.985 3.13979 11.5906 3.55328 11.2743C3.80193 10.9988 3.98729 10.7323 4.2721 10.4522C4.03249 10.7052 3.87426 10.9491 3.6663 11.1975C3.78836 11.1162 3.90139 11.0304 4.04606 10.9627C4.25949 10.7232 4.52245 10.5329 4.81673 10.405C5.11102 10.2771 5.4296 10.2146 5.75045 10.2219ZM4.04606 10.9627C4.02797 10.9943 4.00989 11.0078 3.99181 11.044L4.15908 10.9085L4.04606 10.9627ZM70.7748 16.0849L70.7522 16.1527C70.924 16.1301 71.0913 16.0759 71.2631 16.0849C71.0958 16.0759 70.9195 16.1301 70.7432 16.1752C66.8416 28.1091 62.2122 40.0429 57.5828 51.9767C57.5802 51.9815 57.5772 51.9861 57.5738 51.9903C57.1804 54.0907 56.5159 55.9833 55.1325 57.3655C57.09 55.1657 57.3296 51.9858 57.5738 48.0786C57.8179 44.4153 57.8179 40.5082 59.7755 36.5965C59.7755 36.3571 59.78 36.1222 60.0151 35.8783L60.0196 35.8692C60.4581 34.2747 60.9328 32.757 61.4527 31.271C63.3425 25.4441 66.6066 16.9702 70.5533 16.1843C70.6257 16.1572 70.707 16.0985 70.7794 16.0849M20.1857 73.22L18.721 73.7079C19.4534 74.6881 19.9416 75.4243 20.4299 75.6637C20.9501 75.9694 21.5399 76.1374 22.1433 76.1516C22.3874 76.1516 22.8712 76.1516 23.1153 75.9076L26.7863 74.6881C27.0304 74.6881 27.2745 74.4441 27.5187 74.4441C28.0069 74.4441 28.2511 74.4441 28.7393 74.6881L29.9645 75.9076L31.1851 75.6637C30.6969 74.932 29.9645 74.2048 29.4762 73.9608C28.988 73.7169 28.4952 73.464 27.7628 73.464H27.2745L23.3594 74.932H22.6316C22.1388 74.932 21.655 74.932 21.4109 74.6881C21.1668 74.4441 20.674 73.9563 20.1857 73.22ZM45.851 79.3225C44.6304 79.3225 43.6493 79.5754 42.9169 80.3072C41.9404 81.0389 41.6963 82.2585 41.9404 83.7265C41.9404 84.9461 42.4287 85.9218 43.1611 86.902C43.8935 87.8776 44.8745 88.37 45.851 88.37C46.5834 88.37 47.0717 88.117 47.8086 87.8731C49.0292 87.1413 49.522 85.9218 49.522 83.7265C49.522 82.0146 49.0292 80.795 48.2968 80.0678C47.5803 79.5691 46.7241 79.3053 45.851 79.3225ZM25.5611 79.5709C24.3405 79.5709 23.364 79.8193 22.6316 80.5511C21.6505 81.2828 21.4109 82.5024 21.655 83.9704C21.655 85.19 22.1388 86.1657 22.8757 87.1413C23.6126 88.117 24.5846 88.6139 25.5611 88.6139C26.298 88.6139 26.7863 88.3609 27.5187 88.117C28.7393 87.3853 29.2276 86.1657 29.2276 83.9704C29.2276 82.0146 28.7393 80.795 28.0069 80.3117C27.2916 79.8139 26.4372 79.5547 25.5656 79.5709H25.5611ZM25.5611 82.5069C26.298 82.5069 26.7863 82.9948 26.7863 83.7265C26.7863 84.4583 26.0494 84.9461 25.5656 84.9461C24.8287 84.9461 24.345 84.4583 24.345 83.7265C24.345 82.9948 24.8287 82.5069 25.5656 82.5069M45.3673 82.7509C46.0997 82.7509 46.5924 83.2342 46.5924 83.9704C46.5924 84.4583 46.0997 85.19 45.3718 85.19C44.6349 85.19 44.1511 84.7022 44.1511 83.9704C44.1511 83.2342 44.6304 82.7509 45.3673 82.7509ZM33.1517 92.2726L33.8841 93.7361C34.1315 94.2007 34.4626 94.6157 34.8607 94.9602C35.1048 95.2041 35.5976 95.692 36.0813 95.692H36.5741C37.0623 95.692 37.3019 95.692 37.5461 95.4481C37.7902 95.2041 38.2875 95.2041 38.5316 94.9602L39.2595 94.2285C39.5036 93.9845 39.7478 93.7361 39.7478 93.4922C39.9919 93.2483 39.9919 93.0044 40.236 92.7605C40.236 92.5165 40.4802 92.2726 40.4802 92.2726C40.236 92.7605 39.7478 93.2483 39.5036 93.7361C39.0154 93.98 38.7758 94.4724 38.283 94.4724C37.7993 94.7163 37.3065 94.7163 36.8182 94.7163C36.33 94.7163 35.8417 94.7163 35.5976 94.4724C35.1093 94.4724 34.8607 94.2285 34.6165 93.9845L33.8841 93.2483C33.64 93.0044 33.3959 92.5165 33.1517 92.2726ZM29.2366 96.9161C24.1009 96.9161 20.9272 103.755 13.5942 97.6478C11.6412 109.618 26.0629 110.593 32.1752 105.462C36.3345 101.803 35.1048 96.6721 29.2366 96.9161ZM42.1936 96.9161C36.33 96.6721 35.1048 101.803 39.264 105.467C45.3718 110.593 59.789 109.613 57.836 97.6478C50.503 103.755 47.5735 96.9161 42.1936 96.9161Z" fill="#F06F66"/>
<path d="M33.2196 0.0180482L33.2466 1.01768L33.2474 1.01766L33.2196 0.0180482ZM28.2465 0.44716L28.346 1.44221L28.3708 1.43973L28.3954 1.43602L28.2465 0.44716ZM20.674 3.13476L21.0672 4.05421L21.0771 4.04997L21.0869 4.04552L20.674 3.13476ZM10.6466 6.31019L10.5701 5.31312L10.4545 5.32198L10.3441 5.35704L10.6466 6.31019ZM2.09302 12.4126L1.29327 11.8123L1.09302 12.079V12.4126H2.09302ZM1.84889 12.9004L1.14209 12.193L1.02743 12.3076L0.954825 12.4525L1.84889 12.9004ZM0.37959 24.622L-0.603291 24.8062L-0.593528 24.8583L-0.578313 24.9091L0.37959 24.622ZM2.82089 31.4652L1.87229 31.7817L1.87741 31.797L1.88302 31.8122L2.82089 31.4652ZM6.98014 45.6304L5.99017 45.7717L6.01322 45.9332L6.08642 46.079L6.98014 45.6304ZM8.93317 51.0056L7.96295 51.2478L7.96999 51.276L7.97867 51.3038L8.93317 51.0056ZM15.05 62.7271L14.3679 63.4584L14.8757 63.932L15.4968 63.6217L15.05 62.7271ZM15.0771 62.7136L15.8221 62.0465L15.3129 61.478L14.6302 61.819L15.0771 62.7136ZM15.2941 62.971L14.6078 63.6984L15.1056 64.1681L15.7237 63.8741L15.2941 62.971ZM15.389 62.9259L15.8187 63.8289L16.4109 63.5471L16.3885 62.8916L15.389 62.9259ZM15.2986 60.288L14.4663 59.7337L14.2882 60.0011L14.2992 60.3222L15.2986 60.288ZM28.2465 51.7373L28.45 52.7164L28.4533 52.7157L28.2465 51.7373ZM43.8935 52.2252L44.1439 51.257L44.1346 51.2546L44.1252 51.2524L43.8935 52.2252ZM55.8739 60.288L56.871 60.2118L56.8703 60.2034L55.8739 60.288ZM55.9869 65.8393L54.988 65.7932L54.958 66.4431L55.54 66.7339L55.9869 65.8393ZM56.6018 66.1465L56.1549 67.0411L56.636 67.2814L57.1017 67.0125L56.6018 66.1465ZM57.5331 65.2882L56.8263 64.5808L56.7622 64.6449L56.7106 64.7194L57.5331 65.2882ZM57.5466 65.2747L58.2534 65.9821L58.3038 65.9318L58.3465 65.8749L57.5466 65.2747ZM57.5738 65.2386L58.3736 65.8388L58.3771 65.8341L57.5738 65.2386ZM58.0711 64.3623L57.1915 63.8864L57.1839 63.9005L57.1768 63.9147L58.0711 64.3623ZM58.3242 63.7796L57.4103 63.3737L57.406 63.3834L57.4019 63.3932L58.3242 63.7796ZM60.7565 54.9128L61.7336 55.1253L61.7354 55.1172L61.737 55.109L60.7565 54.9128ZM61.4934 51.7373L60.5799 51.3305L60.5436 51.4121L60.5223 51.4988L61.4934 51.7373ZM68.8263 39.7674L69.6327 40.3588L69.6373 40.3524L68.8263 39.7674ZM76.8916 21.4511L77.8889 21.3772L77.8739 21.1738L77.7803 20.9926L76.8916 21.4511ZM51.7101 2.15457L51.4678 3.12477L51.4871 3.1296L51.5066 3.13365L51.7101 2.15457ZM49.5175 1.66674L49.8335 0.717976L49.7663 0.69562L49.6967 0.682938L49.5175 1.66674ZM55.8739 60.5274L54.8768 60.604L54.8773 60.6098L55.8739 60.5274ZM43.6493 52.2252L43.8914 51.2549L43.8828 51.2528L43.8741 51.2508L43.6493 52.2252ZM28.7348 51.7373L28.5385 50.7568L28.5307 50.7584L28.5229 50.7601L28.7348 51.7373ZM16.0265 60.2834L15.1738 59.761L15.0164 60.018L15.0271 60.3191L16.0265 60.2834ZM16.2571 66.7472L15.2577 66.7829L15.3147 68.3809L16.7266 67.6302L16.2571 66.7472ZM30.4528 62.2303L30.3761 61.2331L30.3636 61.2342L30.4528 62.2303ZM31.375 62.1896L31.4337 63.1879L31.4596 63.1864L31.4854 63.1835L31.375 62.1896ZM55.4308 69.4348L54.8619 70.2572L56.1926 71.1777L56.4209 69.5759L55.4308 69.4348ZM55.7473 65.7174L56.2021 64.8268L54.8052 64.1134L54.748 65.6809L55.7473 65.7174ZM55.9507 65.8212L55.4959 66.7118L56.9002 67.4289L56.9502 65.853L55.9507 65.8212ZM56.0186 64.963H57.0186L55.0187 64.9471L56.0186 64.963ZM33.215 0.261965L33.2441 1.26155L33.2472 1.26145L33.215 0.261965ZM34.9285 0.311651L34.9205 1.31162L34.9372 -0.688311L34.9285 0.311651ZM31.8226 0.383923L31.7645 -0.614388L31.8795 1.3823L31.8226 0.383923ZM29.526 0.587186L29.6435 1.58026L29.4098 -0.406048L29.526 0.587186ZM28.4907 0.695594L28.6323 1.68551L28.6338 1.6853L28.4907 0.695594ZM16.0581 5.41583L15.7099 4.47842L16.3903 6.35905L16.0581 5.41583ZM20.9181 3.38319L21.3102 4.30312L21.338 4.29127L21.365 4.27777L20.9181 3.38319ZM28.2465 0.695594L28.3569 1.68949L28.3753 1.68744L28.3937 1.6847L28.2465 0.695594ZM28.4907 1.67126L27.784 2.37878L28.0768 2.67126H28.4907V1.67126ZM30.9365 1.91518L30.7136 2.89002L31.2525 0.966409L30.9365 1.91518ZM29.2638 1.85194L29.1151 0.863048L29.19 2.84922L29.2638 1.85194ZM30.6924 2.15909L31.5572 1.65704L31.3753 1.34377L31.0351 1.21964L30.6924 2.15909ZM27.6227 38.9679L26.6265 38.88L26.6163 38.9964L26.6331 39.112L27.6227 38.9679ZM29.7158 51.254L28.7856 51.6209L30.6973 51.0624L29.7158 51.254ZM22.8666 18.0362L23.8657 17.9914L23.8651 17.9808L22.8666 18.0362ZM23.8522 6.80254L24.8004 7.12033L24.8017 7.11638L23.8522 6.80254ZM28.4862 1.66674L29.1929 0.959226L28.853 0.619765L28.3756 0.672872L28.4862 1.66674ZM42.6683 2.89084L43.6018 3.2495L41.834 2.33957L42.6683 2.89084ZM38.2739 36.1086L39.269 36.2082L39.2718 36.1802L39.273 36.152L38.2739 36.1086ZM38.5181 47.8302H39.5181V47.7989L39.5161 47.7678L38.5181 47.8302ZM38.5181 48.0741H39.5181V48.0076L39.5093 47.9417L38.5181 48.0741ZM57.8224 4.60729L58.8147 4.73132L56.97 4.08448L57.8224 4.60729ZM49.7616 28.5472L48.7773 28.3707L48.7673 28.4264L48.7637 28.4829L49.7616 28.5472ZM48.0482 52.4781L47.0487 52.5104H49.0477L48.0482 52.4781ZM49.2688 28.7866L50.2576 28.9363L50.2582 28.9321L49.2688 28.7866ZM11.8446 7.45298L11.8259 8.4528L11.841 8.45308L11.856 8.45291L11.8446 7.45298ZM14.5572 8.51898L14.1103 9.41357L15.2464 7.79445L14.5572 8.51898ZM14.4939 8.48736L14.9408 7.59278L13.9254 9.31001L14.4939 8.48736ZM16.2706 10.2219L17.2491 10.4283L17.3408 9.99361L17.0797 9.6342L16.2706 10.2219ZM16.4515 31.3161L15.46 31.1859L15.4482 31.2752L15.4527 31.3652L16.4515 31.3161ZM20.2897 51.4573L19.4511 52.002L21.1439 50.9373L20.2897 51.4573ZM14.3131 27.8064L15.3098 27.7255L15.3089 27.7143L15.3077 27.7032L14.3131 27.8064ZM12.2154 14.6937L13.167 14.3864L13.1471 14.3249L13.1195 14.2664L12.2154 14.6937ZM10.4793 10.9807L11.3857 10.5583L11.3562 10.4949L11.3181 10.4362L10.4793 10.9807ZM10.1629 10.4658L10.9654 9.86914L10.9274 9.81802L10.8832 9.77214L10.1629 10.4658ZM9.43047 8.7629L8.43047 8.7629V8.78572L8.43151 8.80851L9.43047 8.7629ZM9.91873 8.03115V9.03115H10.3327L10.6255 8.73857L9.91873 8.03115ZM10.8907 7.53428L10.7023 6.5522L10.401 6.61001L10.1839 6.82687L10.8907 7.53428ZM5.75045 10.2219L6.06642 11.1706L5.77302 9.22214L5.75045 10.2219ZM5.11751 10.4974L4.73319 9.57422L5.306 11.4795L5.11751 10.4974ZM7.46839 11.9338L8.44686 12.1402L8.52408 11.7742L8.34208 11.4473L7.46839 11.9338ZM9.40335 34.9884L8.40336 34.9838L8.40296 35.0703L8.41741 35.1556L9.40335 34.9884ZM16.5102 58.0927L15.7601 58.754L17.2878 57.4639L16.5102 58.0927ZM7.22426 32.206L8.20686 32.0202L8.20521 32.0115L8.20342 32.0028L7.22426 32.206ZM2.0885 17.0651L1.19423 17.5126L1.29254 17.7091L1.46414 17.8462L2.0885 17.0651ZM2.0885 13.1534L3.00473 13.5541L3.0885 13.3625L3.0885 13.1534L2.0885 13.1534ZM0.415757 21.7402L-0.582292 21.8026L1.41423 21.685L0.415757 21.7402ZM2.33263 12.6656L1.53288 12.0652L1.33263 12.332V12.6656H2.33263ZM2.53155 12.4352L3.30739 13.0661L3.35709 13.005L3.3966 12.9369L2.53155 12.4352ZM3.55328 11.2743L4.16079 12.0686L4.23396 12.0127L4.29567 11.9443L3.55328 11.2743ZM4.2721 10.4522L4.9981 11.1399L3.57099 9.7392L4.2721 10.4522ZM3.6663 11.1975L2.8995 10.5557L4.22066 12.0298L3.6663 11.1975ZM3.99181 11.044L3.09753 10.5964L4.62127 11.821L3.99181 11.044ZM4.15908 10.9085L4.78855 11.6855L3.72665 10.0068L4.15908 10.9085ZM70.7522 16.1527L69.8036 15.8362L69.2979 17.3525L70.8826 17.1441L70.7522 16.1527ZM71.2631 16.0849L71.2106 17.0835L71.317 15.0864L71.2631 16.0849ZM70.7432 16.1752L70.495 15.2065L69.9633 15.3428L69.7927 15.8645L70.7432 16.1752ZM57.5828 51.9767L58.4661 52.4456L58.4937 52.3935L58.5151 52.3384L57.5828 51.9767ZM57.5738 51.9903L56.8017 51.3547L56.6382 51.5533L56.5908 51.8062L57.5738 51.9903ZM55.1325 57.3655L54.3854 56.7007L55.8393 58.0729L55.1325 57.3655ZM57.5738 48.0786L56.576 48.0121L56.5757 48.0162L57.5738 48.0786ZM59.7755 36.5965L60.6697 37.044L60.7755 36.8327V36.5965H59.7755ZM60.0151 35.8783L60.7351 36.5722L60.841 36.4623L60.9093 36.3257L60.0151 35.8783ZM60.0196 35.8692L60.9139 36.3167L60.9578 36.229L60.9838 36.1344L60.0196 35.8692ZM61.4527 31.271L62.3966 31.6012L62.4004 31.5904L62.4039 31.5795L61.4527 31.271ZM70.5533 16.1843L70.7486 17.165L70.8282 17.1492L70.9042 17.1207L70.5533 16.1843ZM20.1857 73.22L21.0191 72.6674L20.5961 72.0294L19.8698 72.2713L20.1857 73.22ZM18.721 73.7079L18.405 72.7591L17.0908 73.1968L17.9199 74.3064L18.721 73.7079ZM20.4299 75.6637L20.9365 74.8016L20.904 74.7825L20.8701 74.7658L20.4299 75.6637ZM22.1433 76.1516L22.1198 77.1513L22.1315 77.1516H22.1433L22.1433 76.1516ZM23.1153 75.9076L22.8 74.9586L22.5757 75.0332L22.4085 75.2002L23.1153 75.9076ZM26.7863 74.6881V73.6881H26.6245L26.471 73.7391L26.7863 74.6881ZM28.7393 74.6881L29.4448 73.9793L29.3305 73.8656L29.1862 73.7935L28.7393 74.6881ZM29.9645 75.9076L29.259 76.6164L29.6372 76.9928L30.1604 76.8883L29.9645 75.9076ZM31.1851 75.6637L31.3811 76.6443L32.8463 76.3516L32.017 75.1087L31.1851 75.6637ZM27.2745 73.464V72.464H27.0932L26.9235 72.5276L27.2745 73.464ZM23.3594 74.932V75.932H23.5407L23.7105 75.8683L23.3594 74.932ZM45.851 79.3225V80.3225H45.8609L45.8707 80.3223L45.851 79.3225ZM42.9169 80.3072L43.5166 81.1074L43.5735 81.0648L43.6237 81.0146L42.9169 80.3072ZM41.9404 83.7265H42.9404V83.6439L42.9269 83.5625L41.9404 83.7265ZM43.1611 86.902L42.36 87.5005L42.3613 87.5023L43.1611 86.902ZM47.8086 87.8731L48.1228 88.8224L48.2278 88.7877L48.3227 88.7308L47.8086 87.8731ZM48.2968 80.0678L49.0014 79.3582L48.9396 79.2968L48.868 79.247L48.2968 80.0678ZM22.6316 80.5511L23.2295 81.3527L23.2873 81.3095L23.3384 81.2585L22.6316 80.5511ZM21.655 83.9704H22.655V83.8879L22.6415 83.8064L21.655 83.9704ZM27.5187 88.117L27.8347 89.0658L27.9387 89.0311L28.0328 88.9747L27.5187 88.117ZM28.0069 80.3117L27.4358 81.1325L27.4459 81.1395L27.4561 81.1463L28.0069 80.3117ZM25.5656 79.5709V80.5709H25.575L25.5843 80.5707L25.5656 79.5709ZM33.1517 92.2726L33.8585 91.5652L32.2575 92.7202L33.1517 92.2726ZM33.8841 93.7361L32.9899 94.1836L32.9955 94.195L33.0015 94.2061L33.8841 93.7361ZM34.8607 94.9602L35.5675 94.2528L35.5421 94.2275L35.5151 94.2041L34.8607 94.9602ZM38.5316 94.9602L39.2384 95.6676L39.2406 95.6654L38.5316 94.9602ZM39.2595 94.2285L38.5527 93.521L38.5505 93.5232L39.2595 94.2285ZM39.7478 93.4922L39.041 92.7848L38.7478 93.0777V93.4922H39.7478ZM40.236 92.7605L40.9428 93.4679L41.236 93.1749V92.7605H40.236ZM40.4802 92.2726L41.3744 92.7201L39.7734 91.5652L40.4802 92.2726ZM39.5036 93.7361L39.9505 94.6307L40.2487 94.4817L40.3979 94.1836L39.5036 93.7361ZM38.283 94.4724V93.4724H38.0451L37.8328 93.5795L38.283 94.4724ZM35.5976 94.4724L36.3044 93.765L36.0115 93.4724H35.5976V94.4724ZM34.6165 93.9845L33.9075 94.6898L33.9097 94.692L34.6165 93.9845ZM33.8841 93.2483L34.5931 92.543L34.5909 92.5409L33.8841 93.2483ZM29.2366 96.9161V97.9161H29.2574L29.2782 97.9152L29.2366 96.9161ZM13.5942 97.6478L14.2342 96.8794L12.8892 95.7592L12.6073 97.4868L13.5942 97.6478ZM32.1752 105.462L32.8182 106.228L32.827 106.221L32.8357 106.213L32.1752 105.462ZM42.1936 96.9161L42.152 97.9152L42.1728 97.9161H42.1936V96.9161ZM39.264 105.467L38.6031 106.217L38.612 106.225L38.6211 106.233L39.264 105.467ZM57.836 97.6478L58.8229 97.4867L58.541 95.7593L57.196 96.8794L57.836 97.6478ZM33.1926 -0.981587C31.4834 -0.935433 29.7923 -0.796821 28.0977 -0.541696L28.3954 1.43602C30.0011 1.19427 31.6103 1.06187 33.2466 1.01768L33.1926 -0.981587ZM28.1471 -0.547886C25.4993 -0.283337 22.8704 1.04098 20.2611 2.22399L21.0869 4.04552C23.8575 2.78937 26.1112 1.66549 28.346 1.44221L28.1471 -0.547886ZM20.2808 2.2153C16.8132 3.69818 13.5499 5.08443 10.5701 5.31312L10.7231 7.30725C14.0997 7.04811 17.6902 5.49833 21.0672 4.05421L20.2808 2.2153ZM10.3441 5.35704C7.54694 6.24477 5.65624 7.3402 4.26172 8.50149C2.87535 9.65599 2.01619 10.8492 1.29327 11.8123L2.89277 13.0129C3.63463 12.0247 4.36231 11.0204 5.54156 10.0384C6.71267 9.06313 8.36636 8.08302 10.9491 7.26333L10.3441 5.35704ZM1.09302 12.4126C1.09302 12.3105 1.11749 12.2426 1.12651 12.2201C1.13635 12.1955 1.14326 12.1868 1.13913 12.193C1.13608 12.1975 1.13157 12.2033 1.12806 12.2074C1.12676 12.2089 1.12673 12.2089 1.12862 12.2068C1.1296 12.2058 1.13114 12.2042 1.13334 12.2019C1.13443 12.2008 1.1357 12.1995 1.13716 12.198C1.13788 12.1973 1.13866 12.1965 1.13948 12.1956C1.13989 12.1952 1.14031 12.1948 1.14075 12.1944C1.14097 12.1942 1.14119 12.1939 1.14141 12.1937C1.14152 12.1936 1.1417 12.1934 1.14175 12.1934C1.14192 12.1932 1.14209 12.193 1.84889 12.9004C2.55568 13.6079 2.55586 13.6077 2.55603 13.6075C2.55609 13.6075 2.55627 13.6073 2.55639 13.6072C2.55663 13.6069 2.55687 13.6067 2.55712 13.6064C2.55761 13.6059 2.55812 13.6054 2.55865 13.6049C2.55971 13.6038 2.56083 13.6027 2.56202 13.6015C2.5644 13.5991 2.56704 13.5964 2.56993 13.5934C2.57569 13.5874 2.58248 13.5803 2.59013 13.5721C2.60538 13.5558 2.62443 13.5348 2.64601 13.5096C2.68827 13.4604 2.74479 13.3899 2.80278 13.303C2.89702 13.1618 3.09302 12.8354 3.09302 12.4126H1.09302ZM0.954825 12.4525C-1.1189 16.5915 -1.36771 20.7282 -0.603291 24.8062L1.36247 24.4377C0.662111 20.7014 0.901556 17.0237 2.74295 13.3484L0.954825 12.4525ZM-0.578313 24.9091C-0.201466 26.1665 0.236285 27.3559 0.664763 28.4901C1.09685 29.6339 1.5141 30.708 1.87229 31.7817L3.76949 31.1487C3.39529 30.0271 2.95808 28.9014 2.53572 27.7834C2.10974 26.6557 1.69304 25.5212 1.33749 24.3349L-0.578313 24.9091ZM1.88302 31.8122C3.61082 36.4823 5.27582 40.7668 5.99017 45.7717L7.9701 45.4891C7.21967 40.2314 5.46685 35.735 3.75876 31.1182L1.88302 31.8122ZM6.08642 46.079C6.78786 47.4764 7.49114 49.3579 7.96295 51.2478L9.9034 50.7634C9.39868 48.7416 8.64624 46.7204 7.87385 45.1818L6.08642 46.079ZM7.97867 51.3038C9.18226 55.1564 10.4741 59.8271 14.3679 63.4584L15.732 61.9958C12.2929 58.7885 11.1254 54.6692 9.88768 50.7074L7.97867 51.3038ZM15.4968 63.6217L15.524 63.6082L14.6302 61.819L14.6031 61.8325L15.4968 63.6217ZM14.3322 63.3807C14.3417 63.3914 14.3453 63.3967 14.3965 63.4621C14.4354 63.5118 14.509 63.6051 14.6078 63.6984L15.9804 62.2437C15.9978 62.2602 16.0014 62.2677 15.9714 62.2293C15.9638 62.2197 15.9342 62.1815 15.9153 62.1575C15.8912 62.1272 15.8596 62.0883 15.8221 62.0465L14.3322 63.3807ZM15.7237 63.8741L15.8187 63.8289L14.9594 62.0229L14.8645 62.068L15.7237 63.8741ZM16.3885 62.8916L16.298 60.2537L14.2992 60.3222L14.3896 62.9601L16.3885 62.8916ZM16.131 60.8422C18.9127 56.6647 22.8353 53.8833 28.45 52.7164L28.0431 50.7583C21.9215 52.0305 17.5437 55.1121 14.4663 59.7337L16.131 60.8422ZM28.4533 52.7157C30.7113 52.2385 33.1641 52.0617 35.7271 52.1585L35.8026 50.1599C33.1032 50.0579 30.4835 50.2425 28.0398 50.759L28.4533 52.7157ZM35.7379 52.1588C38.408 52.2308 41.0635 52.579 43.6617 53.198L44.1252 51.2524C41.3926 50.6015 38.5999 50.2352 35.7918 50.1595L35.7379 52.1588ZM43.643 53.1933C46.8566 54.0246 49.6808 55.2668 51.7083 56.6278C52.7225 57.3086 53.5108 58.0014 54.05 58.6632C54.5941 59.3309 54.8382 59.9089 54.8775 60.3725L56.8703 60.2034C56.7853 59.2013 56.2947 58.2519 55.6005 57.3999C54.9014 56.5418 53.9478 55.7223 52.823 54.9672C50.5726 53.4566 47.5309 52.1332 44.1439 51.257L43.643 53.1933ZM54.8768 60.3641C54.997 61.9389 55.054 63.4449 55.0188 64.9441L57.0183 64.991C57.0554 63.4096 56.9949 61.835 56.871 60.2118L54.8768 60.3641ZM55.0186 64.9675C55.0186 65.2262 55.0026 65.4774 54.988 65.7932L56.9858 65.8855C56.9984 65.614 57.0186 65.2871 57.0186 64.9675H55.0186ZM55.54 66.7339L56.1549 67.0411L57.0487 65.2519L56.4338 64.9447L55.54 66.7339ZM57.1017 67.0125C57.6 66.7249 58.0282 66.3303 58.3555 65.8571L56.7106 64.7194C56.5518 64.949 56.3439 65.1407 56.1018 65.2804L57.1017 67.0125ZM58.2399 65.9957L58.2534 65.9821L56.8398 64.5673L56.8263 64.5808L58.2399 65.9957ZM58.3465 65.8749L58.3736 65.8388L56.7739 64.6383L56.7468 64.6745L58.3465 65.8749ZM58.3771 65.8341C58.6203 65.506 58.8181 65.104 58.9653 64.8098L57.1768 63.9147C57.0076 64.2529 56.8889 64.4832 56.7704 64.643L58.3771 65.8341ZM58.9506 64.8381C59.0725 64.6129 59.1933 64.2931 59.2466 64.166L57.4019 63.3932C57.2924 63.6545 57.2505 63.7774 57.1915 63.8864L58.9506 64.8381ZM59.2382 64.1855C60.2155 61.9847 60.9455 58.7495 61.7336 55.1253L59.7793 54.7003C58.9761 58.3935 58.2865 61.4007 57.4103 63.3737L59.2382 64.1855ZM61.737 55.109C61.9758 53.9163 62.2221 52.963 62.4645 51.9758L60.5223 51.4988C60.2855 52.463 60.0254 53.4701 59.7759 54.7165L61.737 55.109ZM62.4069 52.1442C64.3187 47.8518 66.9506 44.0159 69.6327 40.3588L68.0199 39.176C65.3222 42.8544 62.5832 46.8328 60.5799 51.3305L62.4069 52.1442ZM69.6373 40.3524C71.8229 37.3227 74.0127 34.3252 75.5823 31.2502C77.1609 28.1577 78.151 24.9169 77.8889 21.3772L75.8944 21.5249C76.1206 24.58 75.2775 27.4484 73.801 30.3409C72.3156 33.2508 70.2286 36.1141 68.0153 39.1823L69.6373 40.3524ZM77.7803 20.9926C73.6648 13.0154 68.7085 8.35519 63.9894 5.53899C59.2826 2.73012 54.8624 1.78834 51.9136 1.1755L51.5066 3.13365C54.426 3.74039 58.5639 4.63024 62.9645 7.25642C67.3528 9.87525 72.0531 14.2536 76.0029 21.9096L77.7803 20.9926ZM51.9525 1.18438C51.4262 1.05293 51.0257 0.985944 50.7016 0.926867C50.3799 0.868233 50.1314 0.817206 49.8335 0.717976L49.2015 2.61551C49.6359 2.76019 49.9955 2.83113 50.3429 2.89445C50.6879 2.95733 51.0176 3.01231 51.4678 3.12477L51.9525 1.18438ZM49.6967 0.682938C43.6279 -0.422813 38.32 -1.12453 33.1917 -0.981563L33.2474 1.01766C38.1646 0.880578 43.3091 1.55202 49.3382 2.65055L49.6967 0.682938ZM57.0184 64.9849C57.0447 63.4701 56.9954 61.9549 56.8705 60.4449L54.8773 60.6098C54.9967 62.0533 55.0439 63.5019 55.0187 64.9502L57.0184 64.9849ZM56.871 60.4507C56.7121 58.3842 55.0258 56.5022 52.7964 54.997C50.5082 53.452 47.3989 52.1299 43.8914 51.2549L43.4073 53.1954C46.7445 54.0279 49.6254 55.2692 51.6772 56.6545C53.7879 58.0797 54.7916 59.4951 54.8768 60.604L56.871 60.4507ZM43.8741 51.2508C41.2244 50.6395 38.5239 50.2744 35.8069 50.1601L35.7228 52.1583C38.3167 52.2674 40.8949 52.616 43.4245 53.1996L43.8741 51.2508ZM35.7983 50.1597C33.3634 50.0782 30.9273 50.2785 28.5385 50.7568L28.9311 52.7179C31.1687 52.2699 33.4506 52.0822 35.7314 52.1586L35.7983 50.1597ZM28.5229 50.7601C22.6702 52.0292 18.0255 55.1066 15.1738 59.761L16.8792 60.8059C19.4074 56.6793 23.5513 53.8846 28.9467 52.7146L28.5229 50.7601ZM15.0271 60.3191L15.2577 66.7829L17.2564 66.7116L17.0259 60.2478L15.0271 60.3191ZM16.7266 67.6302C19.7026 66.0476 24.3806 63.7776 30.5419 63.2263L30.3636 61.2342C23.803 61.8212 18.8424 64.2398 15.7876 65.8643L16.7266 67.6302ZM30.5294 63.2273C30.6519 63.2179 30.7856 63.2128 30.9415 63.2077C31.0904 63.2028 31.2637 63.1979 31.4337 63.1879L31.3164 61.1913C31.1789 61.1994 31.038 61.2035 30.8761 61.2088C30.7212 61.2138 30.5475 61.22 30.3761 61.2332L30.5294 63.2273ZM31.4854 63.1835C32.1305 63.1119 32.6486 62.9909 33.3823 62.9909V60.9909C32.5066 60.9909 31.6774 61.1499 31.2647 61.1957L31.4854 63.1835ZM33.3823 62.9909C40.4181 62.9909 47.7321 65.3252 54.8619 70.2572L55.9997 68.6124C48.5812 63.4807 40.8768 60.9909 33.3823 60.9909V62.9909ZM56.4209 69.5759C56.6032 68.2958 56.7005 67.0177 56.7466 65.7539L54.748 65.6809C54.7037 66.8924 54.6111 68.0986 54.4408 69.2938L56.4209 69.5759ZM55.2925 66.6079L55.4959 66.7118L56.4056 64.9307L56.2021 64.8268L55.2925 66.6079ZM56.9502 65.853C56.9533 65.7554 56.9644 65.6519 56.9807 65.4979C56.9956 65.3586 57.0154 65.1726 57.0184 64.9789L55.0187 64.9471C55.0172 65.038 55.0077 65.1388 54.992 65.2863C54.9778 65.4192 54.9572 65.6026 54.9513 65.7895L56.9502 65.853ZM55.0186 64.963V64.9675H57.0186V64.963H55.0186ZM33.2472 1.26145C33.4835 1.25383 33.7353 1.26311 34.021 1.27714C34.2944 1.29055 34.6114 1.30915 34.9205 1.31162L34.9365 -0.688317C34.6804 -0.690364 34.421 -0.705644 34.1191 -0.72046C33.8295 -0.734667 33.5072 -0.747971 33.1828 -0.737517L33.2472 1.26145ZM34.9372 -0.688311C33.8771 -0.697521 32.8199 -0.674513 31.7657 -0.614459L31.8795 1.3823C32.8868 1.32492 33.9002 1.30276 34.9198 1.31161L34.9372 -0.688311ZM31.8807 1.38223C32.1453 1.36683 32.4079 1.33602 32.6278 1.3119C32.8592 1.28653 33.0554 1.26703 33.2441 1.26154L33.1859 -0.737612C32.909 -0.729553 32.6418 -0.70162 32.4098 -0.676179C32.1664 -0.649482 31.9655 -0.626087 31.7645 -0.614388L31.8807 1.38223ZM29.4085 -0.405887C29.2537 -0.387577 29.0994 -0.374498 28.9173 -0.357845C28.7425 -0.34187 28.5472 -0.322988 28.3476 -0.294112L28.6338 1.6853C28.7777 1.66449 28.9283 1.64949 29.0994 1.63385C29.2631 1.61888 29.4546 1.6026 29.6435 1.58026L29.4085 -0.405887ZM28.349 -0.294325C26.3524 -0.00864881 24.2351 0.836582 22.142 1.75557C20.0045 2.69401 17.885 3.71231 15.726 4.4726L16.3903 6.35905C18.6437 5.5655 20.8936 4.48793 22.946 3.58684C25.0426 2.66629 26.9353 1.92832 28.6323 1.68551L28.349 -0.294325ZM16.4064 6.35323C18.0408 5.74604 19.7104 4.98497 21.3102 4.30312L20.526 2.46326C18.8617 3.17263 17.2854 3.89313 15.7099 4.47842L16.4064 6.35323ZM21.365 4.27777C23.8289 3.04694 26.3641 1.91071 28.3569 1.68949L28.1362 -0.298301C25.7346 -0.0316933 22.89 1.28027 20.4712 2.48861L21.365 4.27777ZM28.3937 1.6847C28.5589 1.66013 28.7338 1.64742 28.9469 1.63447C29.1476 1.62226 29.3951 1.6093 29.6421 1.58042L29.4098 -0.406048C29.2319 -0.38524 29.0521 -0.37562 28.8256 -0.361849C28.6115 -0.348834 28.3592 -0.33218 28.0994 -0.293515L28.3937 1.6847ZM28.4907 2.67126C29.2701 2.67126 30.073 2.68161 30.6205 2.86394L31.2525 0.966409C30.3352 0.66091 29.176 0.671259 28.4907 0.671259V2.67126ZM31.1594 0.940333C30.4888 0.787003 29.7954 0.760789 29.1151 0.863048L29.4124 2.84083C29.8454 2.77574 30.2868 2.79243 30.7136 2.89002L31.1594 0.940333ZM29.19 2.84922C29.5862 2.87851 29.9765 2.96241 30.3497 3.09854L31.0351 1.21964C30.4887 1.02036 29.9175 0.897534 29.3375 0.854659L29.19 2.84922ZM29.8275 2.66114C30.0573 3.05691 30.2506 3.69924 30.3681 4.63098C30.4836 5.54737 30.5171 6.66774 30.4802 7.96455C30.4063 10.5587 30.054 13.7597 29.5788 17.2615C28.6354 24.2136 27.2008 32.3707 26.6265 38.88L28.6188 39.0558C29.1883 32.6013 30.5996 24.6126 31.5607 17.5304C32.0377 14.0151 32.4023 10.727 32.4794 8.02153C32.5179 6.66857 32.4855 5.43659 32.3524 4.38076C32.2212 3.34027 31.983 2.39052 31.5572 1.65704L29.8275 2.66114ZM26.6331 39.112C27.2345 43.2395 27.9351 47.3519 28.7344 51.4457L30.6973 51.0624C29.9042 47.0001 29.2089 42.9194 28.6122 38.8237L26.6331 39.112ZM30.6461 50.8871C27.5093 42.9338 24.3536 28.8731 23.8656 17.9914L21.8677 18.081C22.3653 29.1789 25.566 43.4577 28.7856 51.6209L30.6461 50.8871ZM23.8651 17.9808C23.6235 13.6311 23.8792 9.86878 24.8004 7.12033L22.9041 6.48474C21.8632 9.59028 21.6215 13.6513 21.8682 18.0917L23.8651 17.9808ZM24.8017 7.11638C25.7517 4.24235 27.0333 2.83453 28.5967 2.66061L28.3756 0.672872C25.5537 0.98679 23.8967 3.48163 22.9027 6.48869L24.8017 7.11638ZM27.7795 2.37426L27.784 2.37878L29.1974 0.963743L29.1929 0.959226L27.7795 2.37426ZM41.7348 2.53218C39.851 7.43518 38.805 14.4536 38.1939 20.8718C37.5805 27.3148 37.3964 33.2688 37.2749 36.0652L39.273 36.152C39.3956 33.3294 39.5777 27.4399 40.1849 21.0614C40.7945 14.6582 41.8237 7.8773 43.6018 3.2495L41.7348 2.53218ZM37.2789 36.009C37.0249 38.5466 37.2776 44.0127 37.52 47.8925L39.5161 47.7678C39.2703 43.8332 39.0347 38.549 39.269 36.2082L37.2789 36.009ZM37.5181 47.8302C37.5181 48.3908 37.5882 48.9407 37.6479 49.4182C37.7102 49.9171 37.7622 50.3442 37.7622 50.7617H39.7622C39.7622 50.1989 39.6921 49.6481 39.6324 49.1702C39.57 48.6709 39.5181 48.2452 39.5181 47.8302H37.5181ZM39.7622 50.7617C39.7622 50.1912 39.6904 49.6973 39.6301 49.2748C39.5683 48.8419 39.5181 48.4813 39.5181 48.0741H37.5181C37.5181 48.6425 37.5899 49.1356 37.6502 49.5575C37.7119 49.9899 37.7622 50.352 37.7622 50.7617H39.7622ZM39.5093 47.9417C38.5282 40.5983 37.4407 32.6207 37.6511 24.8693C37.8614 17.1251 39.3673 9.70082 43.5026 3.44211L41.834 2.33957C37.4157 9.02649 35.8677 16.8673 35.6519 24.815C35.4363 32.7556 36.5504 40.8968 37.5269 48.2065L39.5093 47.9417ZM56.8301 4.48326C56.2402 9.20286 54.7102 12.6864 53.0671 16.2463C51.4256 19.803 49.6579 23.4596 48.7773 28.3707L50.7459 28.7237C51.5742 24.1041 53.2266 20.6735 54.8831 17.0844C56.5381 13.4985 58.184 9.77741 58.8147 4.73132L56.8301 4.48326ZM48.7637 28.4829C48.2807 35.9716 47.2931 44.8671 47.0487 52.4459L49.0477 52.5104C49.2915 44.9483 50.266 36.2637 50.7595 28.6116L48.7637 28.4829ZM49.0477 52.4459C48.8049 44.9178 49.0484 36.923 50.2576 28.9363L48.2801 28.6369C47.0479 36.7758 46.8032 44.8976 47.0487 52.5104L49.0477 52.4459ZM50.2582 28.9321C51.4622 20.7429 54.1127 12.5687 58.6749 5.1301L56.97 4.08448C52.2461 11.7868 49.5167 20.226 48.2795 28.6412L50.2582 28.9321ZM11.856 8.45291C12.6043 8.4444 13.3262 8.72818 13.868 9.24352L15.2464 7.79445C14.327 6.91983 13.1023 6.43861 11.8333 6.45304L11.856 8.45291ZM15.0041 7.6244L14.9408 7.59278L14.047 9.38195L14.1103 9.41357L15.0041 7.6244ZM13.9254 9.31001C14.4488 9.67181 14.9637 10.1242 15.4615 10.8096L17.0797 9.6342C16.4292 8.73866 15.7415 8.13404 15.0625 7.66472L13.9254 9.31001ZM15.2922 10.0155C15.0359 11.2303 14.9968 12.7313 15.047 14.353C15.0975 15.9845 15.2422 17.8179 15.3824 19.7081C15.6656 23.5256 15.9305 27.6046 15.46 31.1859L17.4429 31.4464C17.9445 27.6289 17.6578 23.3469 17.377 19.5602C17.2351 17.6482 17.0948 15.8685 17.046 14.2911C16.9969 12.7038 17.0442 11.3997 17.2491 10.4283L15.2922 10.0155ZM15.4527 31.3652C15.6226 34.823 15.705 38.483 16.1899 41.9797C16.6768 45.4905 17.5785 48.9271 19.4356 51.9773L21.1439 50.9373C19.4836 48.2103 18.638 45.0724 18.171 41.705C17.702 38.3235 17.6239 34.8015 17.4503 31.267L15.4527 31.3652ZM21.1283 50.9126C16.8564 44.336 15.9728 35.8884 15.3098 27.7255L13.3164 27.8874C13.9734 35.9765 14.8621 44.9373 19.4511 52.002L21.1283 50.9126ZM15.3077 27.7032C14.8018 22.8276 14.3826 18.1514 13.167 14.3864L11.2637 15.0009C12.399 18.5173 12.8026 22.9383 13.3184 27.9096L15.3077 27.7032ZM13.1195 14.2664C12.47 12.892 11.9067 11.6763 11.3857 10.5583L9.57291 11.4031C10.0918 12.5166 10.6587 13.7401 11.3112 15.1209L13.1195 14.2664ZM11.3181 10.4362C11.2824 10.3812 11.2521 10.3266 11.1905 10.2198C11.1377 10.1285 11.0613 9.99817 10.9654 9.86914L9.36037 11.0625C9.38198 11.0915 9.40952 11.1351 9.45849 11.2199C9.49854 11.2893 9.56777 11.4131 9.64058 11.5253L11.3181 10.4362ZM10.8832 9.77214C10.6087 9.48708 10.4475 9.11213 10.4294 8.71729L8.43151 8.80851C8.47172 9.68896 8.83116 10.5246 9.44256 11.1595L10.8832 9.77214ZM10.4305 8.7629C10.4305 8.84545 10.4144 8.88036 10.4216 8.85836C10.4256 8.84634 10.4331 8.82968 10.4401 8.81804C10.45 8.80136 10.4389 8.82682 10.3908 8.86835C10.3507 8.90293 10.188 9.03115 9.91873 9.03115V7.03115C9.52516 7.03115 9.23927 7.22035 9.08432 7.35402C8.92133 7.49464 8.80369 7.6573 8.72266 7.79307C8.57701 8.03713 8.43047 8.39877 8.43047 8.7629L10.4305 8.7629ZM10.6255 8.73857C10.5741 8.78996 10.537 8.80281 10.5621 8.79112C10.5911 8.7776 10.6323 8.76229 10.733 8.7273C10.8143 8.69906 10.955 8.65113 11.093 8.58673C11.235 8.5205 11.424 8.41505 11.5975 8.2417L10.1839 6.82687C10.2354 6.77548 10.2724 6.76262 10.2474 6.77431C10.2184 6.78783 10.1772 6.80314 10.0765 6.83813C9.99519 6.86638 9.85446 6.91431 9.71644 6.97871C9.5745 7.04493 9.38544 7.15038 9.21194 7.32373L10.6255 8.73857ZM11.0792 8.51637C11.3229 8.4696 11.5762 8.44813 11.8259 8.4528L11.8633 6.45315C11.4762 6.44591 11.0841 6.47894 10.7023 6.5522L11.0792 8.51637ZM5.43447 9.27312C5.24562 9.33601 5.10115 9.40085 4.98361 9.45683C4.85654 9.51736 4.81088 9.54188 4.73319 9.57422L5.50184 11.4206C5.64115 11.3626 5.77633 11.2945 5.84367 11.2625C5.92052 11.2259 5.98402 11.1981 6.06642 11.1706L5.43447 9.27312ZM5.306 11.4795C5.50868 11.4406 5.6766 11.462 5.84524 11.5543C6.03025 11.6555 6.29854 11.8884 6.59471 12.4203L8.34208 11.4473C7.92395 10.6964 7.41689 10.1343 6.80509 9.79965C6.17692 9.45602 5.52656 9.40066 4.92903 9.51534L5.306 11.4795ZM6.48993 11.7274C6.24473 12.8898 6.27577 14.4723 6.42068 16.2166C6.56771 17.9863 6.84347 20.0342 7.14022 22.1708C7.73876 26.4802 8.42103 31.1536 8.40336 34.9838L10.4033 34.993C10.4218 30.9863 9.71166 26.1469 9.1212 21.8956C8.82345 19.7518 8.55557 17.7573 8.41382 16.051C8.26996 14.3194 8.26709 12.9924 8.44686 12.1402L6.48993 11.7274ZM8.41741 35.1556C9.1186 39.2919 9.75018 43.7044 10.7857 47.7746C11.8225 51.85 13.2902 55.701 15.7326 58.7215L17.2878 57.4639C15.1099 54.7705 13.7317 51.243 12.7239 47.2815C11.7148 43.315 11.1031 39.0323 10.3893 34.8213L8.41741 35.1556ZM17.2604 57.4314C14.7063 54.5344 12.8637 50.4777 11.4448 45.9512C10.0291 41.4348 9.06177 36.5419 8.20686 32.0202L6.24167 32.3917C7.09566 36.9085 8.08139 41.9078 9.53641 46.5495C10.9883 51.1812 12.9343 55.5486 15.7601 58.754L17.2604 57.4314ZM8.20342 32.0028C7.4723 28.4786 6.78927 25.1315 5.97887 22.4245C5.57275 21.0679 5.12535 19.8392 4.60782 18.8091C4.0942 17.7868 3.48092 16.8979 2.71286 16.284L1.46414 17.8462C1.91672 18.208 2.37208 18.8141 2.82071 19.707C3.26543 20.5922 3.67389 21.6987 4.06289 22.9981C4.84272 25.603 5.50693 28.8507 6.24511 32.4091L8.20342 32.0028ZM2.98277 16.6176C2.90766 16.4675 2.83392 16.3387 2.77613 16.2382C2.7137 16.1296 2.67759 16.0668 2.64819 16.0077C2.60505 15.921 2.60024 15.8903 2.60024 15.841H0.600239C0.600239 16.2795 0.717496 16.617 0.857451 16.8984C0.919602 17.0233 0.990295 17.1446 1.0423 17.2351C1.09895 17.3336 1.14727 17.4188 1.19423 17.5126L2.98277 16.6176ZM2.60024 15.841C2.60024 15.0995 2.61216 14.3415 2.98277 13.6009L1.19423 12.7059C0.588314 13.9166 0.600239 15.119 0.600239 15.841H2.60024ZM1.17227 12.7527C-0.133832 15.7395 -0.750735 18.7545 -0.58272 21.7953L1.41423 21.685C1.26579 18.9983 1.80624 16.2948 3.00473 13.5541L1.17227 12.7527ZM1.41381 21.6777C1.23943 18.8903 1.78209 16.1046 2.99015 13.5859L1.18685 12.7209C-0.168943 15.5476 -0.778001 18.6741 -0.582292 21.8026L1.41381 21.6777ZM3.0885 13.1534C3.0885 13.2777 3.0524 13.4094 2.98394 13.5234C2.93332 13.6077 2.87369 13.6605 2.91736 13.6169C2.93472 13.5995 3.05539 13.4857 3.15178 13.3252C3.26601 13.135 3.33263 12.9118 3.33263 12.6656H1.33263C1.33263 12.5413 1.36873 12.4096 1.43719 12.2956C1.4878 12.2113 1.54744 12.1584 1.50377 12.2021C1.48641 12.2194 1.36574 12.3332 1.26935 12.4937C1.15511 12.684 1.0885 12.9071 1.0885 13.1534L3.0885 13.1534ZM3.13238 13.2659C3.12809 13.2716 3.12841 13.2707 3.13711 13.2606C3.14555 13.2508 3.15658 13.2383 3.1734 13.2197C3.18758 13.2039 3.21078 13.1783 3.23118 13.1554C3.25251 13.1313 3.27963 13.1003 3.30739 13.0661L1.7557 11.8043C1.74667 11.8154 1.73343 11.83 1.68739 11.8811C1.65472 11.9174 1.59066 11.9883 1.53288 12.0652L3.13238 13.2659ZM3.3966 12.9369C3.59183 12.6002 3.85147 12.3052 4.16079 12.0686L2.94577 10.48C2.4281 10.8759 1.9934 11.3698 1.66649 11.9335L3.3966 12.9369ZM4.29567 11.9443C4.43825 11.7863 4.56961 11.6228 4.66838 11.5039C4.77423 11.3765 4.86665 11.2701 4.97322 11.1653L3.57099 9.7392C3.39274 9.91447 3.25007 10.0813 3.12987 10.226C3.0026 10.3793 2.91696 10.4868 2.81088 10.6044L4.29567 11.9443ZM3.54611 9.76454C3.39169 9.92756 3.26816 10.0829 3.16591 10.2153C3.05642 10.3571 2.9867 10.4515 2.8995 10.5557L4.4331 11.8394C4.55386 11.6952 4.66723 11.5434 4.74876 11.4379C4.83751 11.3229 4.91291 11.2299 4.9981 11.1399L3.54611 9.76454ZM4.22066 12.0298C4.25777 12.0051 4.29459 11.9798 4.32141 11.9614C4.35082 11.9413 4.37276 11.9264 4.39316 11.9132C4.43236 11.8877 4.45445 11.8756 4.47019 11.8683L3.62193 10.0571C3.38769 10.1668 3.17366 10.3242 3.11193 10.3653L4.22066 12.0298ZM4.79257 11.628C4.90959 11.4967 5.05384 11.3924 5.21534 11.3222L4.41812 9.48792C3.99105 9.67353 3.60938 9.94968 3.29955 10.2973L4.79257 11.628ZM5.21534 11.3222C5.37685 11.252 5.55173 11.2177 5.72788 11.2216L5.77302 9.22214C5.30748 9.21163 4.84518 9.3023 4.41812 9.48792L5.21534 11.3222ZM3.178 10.4662C3.20886 10.4122 3.24618 10.3658 3.22376 10.3952C3.21512 10.4066 3.19432 10.4339 3.17091 10.4694C3.1463 10.5067 3.12138 10.5488 3.09753 10.5964L4.88608 11.4915C4.87127 11.5211 4.8554 11.548 4.83983 11.5715C4.83246 11.5827 4.82606 11.5917 4.82143 11.5981C4.81914 11.6013 4.81729 11.6038 4.81605 11.6054C4.81543 11.6063 4.81494 11.6069 4.81462 11.6073C4.81429 11.6078 4.8141 11.608 4.8141 11.608C4.81409 11.608 4.81412 11.608 4.81419 11.6079C4.81427 11.6078 4.81438 11.6076 4.81454 11.6074C4.81492 11.6069 4.81524 11.6065 4.81596 11.6056C4.8171 11.6041 4.8193 11.6012 4.82175 11.598C4.82671 11.5915 4.83476 11.5808 4.84412 11.5678C4.86395 11.5402 4.88853 11.5039 4.91411 11.4591L3.178 10.4662ZM4.62127 11.821L4.78855 11.6855L3.52961 10.1314L3.36234 10.2669L4.62127 11.821ZM3.72665 10.0068L3.61363 10.061L4.47849 11.8643L4.59151 11.8101L3.72665 10.0068ZM69.8262 15.7685L69.8036 15.8362L71.7009 16.4691L71.7235 16.4013L69.8262 15.7685ZM70.8826 17.1441C70.9543 17.1347 71.0193 17.1228 71.0679 17.1135C71.1272 17.1022 71.148 17.0977 71.1847 17.0911C71.2468 17.08 71.2412 17.0851 71.2106 17.0835L71.3156 15.0863C71.1132 15.0756 70.9381 15.1034 70.8307 15.1227C70.6838 15.1491 70.6798 15.1536 70.6219 15.1612L70.8826 17.1441ZM71.317 15.0864C70.9547 15.0668 70.5833 15.1839 70.495 15.2065L70.9914 17.144C71.0168 17.1374 71.0418 17.1309 71.0635 17.1252C71.0861 17.1192 71.1054 17.1142 71.1242 17.1093C71.162 17.0996 71.1886 17.0933 71.2098 17.0889C71.256 17.0793 71.2471 17.0855 71.2092 17.0835L71.317 15.0864ZM69.7927 15.8645C65.901 27.7682 61.2817 39.6767 56.6505 51.6151L58.5151 52.3384C63.1428 40.4091 67.7823 28.4499 71.6937 16.486L69.7927 15.8645ZM56.6995 51.5078C56.7285 51.4534 56.7627 51.4021 56.8017 51.3547L58.3458 52.6259C58.3917 52.5701 58.432 52.5097 58.4661 52.4456L56.6995 51.5078ZM56.5908 51.8062C56.211 53.8349 55.5965 55.4883 54.4257 56.6581L55.8393 58.0729C57.4353 56.4783 58.1499 54.3465 58.5567 52.1744L56.5908 51.8062ZM55.8795 58.0303C57.0114 56.7583 57.6163 55.2328 57.9733 53.5726C58.3269 51.9282 58.4507 50.08 58.5718 48.141L56.5757 48.0162C56.4527 49.9844 56.3346 51.6797 56.018 53.1521C55.7048 54.6085 55.2111 55.7729 54.3854 56.7007L55.8795 58.0303ZM58.5715 48.1451C58.8213 44.3967 58.8235 40.7331 60.6697 37.044L58.8812 36.1489C56.8123 40.2832 56.8144 44.434 56.576 48.0121L58.5715 48.1451ZM60.7755 36.5965C60.7755 36.5672 60.7755 36.5457 60.7759 36.5264C60.7763 36.5077 60.7769 36.4951 60.7775 36.4862C60.7787 36.4688 60.7796 36.4723 60.7758 36.4872C60.7739 36.4948 60.7709 36.5045 60.7666 36.5153C60.7623 36.5263 60.7573 36.5369 60.7519 36.5466C60.7404 36.5672 60.7318 36.5756 60.7351 36.5722L59.295 35.1843C58.77 35.729 58.7755 36.3199 58.7755 36.5965H60.7755ZM60.9093 36.3257L60.9139 36.3167L59.1253 35.4217L59.1208 35.4308L60.9093 36.3257ZM60.9838 36.1344C61.4163 34.5617 61.8843 33.0657 62.3966 31.6012L60.5088 30.9407C59.9814 32.4484 59.4999 33.9878 59.0554 35.604L60.9838 36.1344ZM62.4039 31.5795C63.3443 28.68 64.6119 25.17 66.1171 22.302C66.8703 20.8668 67.6632 19.6311 68.4775 18.7203C69.3025 17.7976 70.067 17.3008 70.7486 17.165L70.358 15.2035C69.0662 15.4608 67.9427 16.3179 66.9866 17.3872C66.0198 18.4684 65.1386 19.8626 64.3462 21.3726C62.7602 24.3947 61.4509 28.035 60.5015 30.9625L62.4039 31.5795ZM70.9042 17.1207C70.9394 17.1075 70.9701 17.0943 70.9949 17.083C71.0198 17.0717 71.0415 17.061 71.0585 17.0525C71.0753 17.0441 71.0905 17.0361 71.1007 17.0308C71.1128 17.0244 71.1179 17.0218 71.1237 17.0188C71.1285 17.0163 71.1289 17.0162 71.1266 17.0173C71.1244 17.0183 71.1171 17.0218 71.1061 17.0264C71.0951 17.0309 71.0777 17.0377 71.055 17.0449C71.0325 17.0521 71.0015 17.0607 70.9635 17.0678L70.5952 15.102C70.4862 15.1224 70.3981 15.1549 70.3413 15.1783C70.2839 15.2021 70.2356 15.2265 70.209 15.2402C70.1956 15.2471 70.1814 15.2546 70.1744 15.2582C70.1654 15.2629 70.1616 15.2649 70.1594 15.266C70.1529 15.2693 70.1711 15.2596 70.2025 15.2479L70.9042 17.1207ZM19.8698 72.2713L18.405 72.7591L19.037 74.6566L20.5017 74.1688L19.8698 72.2713ZM17.9199 74.3064C18.2641 74.7671 18.5997 75.2375 18.8922 75.5959C19.174 75.9411 19.5346 76.3385 19.9896 76.5616L20.8701 74.7658C20.8703 74.7659 20.8675 74.7646 20.8617 74.761C20.8559 74.7574 20.8475 74.7519 20.8364 74.7438C20.8138 74.7273 20.7831 74.7023 20.7438 74.6654C20.663 74.5897 20.5647 74.482 20.4417 74.3313C20.1849 74.0167 19.9102 73.6288 19.522 73.1093L17.9199 74.3064ZM19.9232 76.5259C20.5902 76.9178 21.3463 77.1331 22.1198 77.1513L22.1668 75.1518C21.7335 75.1416 21.31 75.0211 20.9365 74.8016L19.9232 76.5259ZM22.1433 77.1516C22.2595 77.1516 22.5197 77.1534 22.7946 77.1073C23.0476 77.0649 23.4795 76.9573 23.8221 76.6151L22.4085 75.2002C22.4638 75.145 22.51 75.1256 22.5148 75.1237C22.5195 75.1217 22.5051 75.1279 22.4641 75.1348C22.4246 75.1414 22.3759 75.1462 22.3182 75.1488C22.2603 75.1514 22.2053 75.1516 22.1433 75.1516V77.1516ZM23.4306 76.8566L27.1016 75.6371L26.471 73.7391L22.8 74.9586L23.4306 76.8566ZM26.7863 75.6881C27.011 75.6881 27.1971 75.6325 27.3202 75.5864C27.4391 75.5418 27.5478 75.4864 27.5994 75.4607C27.6319 75.4445 27.651 75.4349 27.6682 75.4269C27.6843 75.4194 27.689 75.4177 27.6864 75.4187C27.6854 75.4191 27.6213 75.4441 27.5187 75.4441V73.4441C27.294 73.4441 27.1079 73.4997 26.9847 73.5458C26.8658 73.5904 26.7571 73.6458 26.7056 73.6715C26.6731 73.6878 26.6539 73.6973 26.6368 73.7053C26.6207 73.7128 26.616 73.7145 26.6185 73.7135C26.6196 73.7131 26.6837 73.6881 26.7863 73.6881V75.6881ZM27.5187 75.4441C27.7825 75.4441 27.8786 75.4467 27.9647 75.4611C28.0261 75.4713 28.1133 75.4932 28.2924 75.5826L29.1862 73.7935C28.8771 73.6391 28.5981 73.539 28.2933 73.4882C28.0132 73.4416 27.7431 73.4441 27.5187 73.4441V75.4441ZM28.0338 75.3968L29.259 76.6164L30.67 75.1989L29.4448 73.9793L28.0338 75.3968ZM30.1604 76.8883L31.3811 76.6443L30.9892 74.6831L29.7685 74.927L30.1604 76.8883ZM32.017 75.1087C31.733 74.6831 31.3846 74.2674 31.0362 73.9206C30.7018 73.5877 30.3077 73.2584 29.9231 73.0663L29.0293 74.8554C29.133 74.9072 29.3493 75.0634 29.6252 75.3381C29.8871 75.5988 30.149 75.9126 30.3533 76.2188L32.017 75.1087ZM29.9231 73.0663C29.4375 72.8236 28.7549 72.464 27.7628 72.464V74.464C28.2355 74.464 28.5385 74.6102 29.0293 74.8554L29.9231 73.0663ZM27.7628 72.464H27.2745V74.464H27.7628V72.464ZM26.9235 72.5276L23.0083 73.9956L23.7105 75.8683L27.6256 74.4003L26.9235 72.5276ZM23.3594 73.932H22.6316V75.932H23.3594V73.932ZM22.6316 73.932C22.5053 73.932 22.399 73.9319 22.2994 73.9287C22.2004 73.9255 22.1261 73.9197 22.0697 73.9116C22.012 73.9033 21.9939 73.8956 22.0007 73.8982C22.01 73.9019 22.0603 73.9233 22.1177 73.9806L20.7041 75.3955C21.056 75.747 21.5004 75.8505 21.7863 75.8914C22.0837 75.934 22.404 75.932 22.6316 75.932V73.932ZM22.1177 73.9806C21.8819 73.745 21.4491 73.3157 21.0191 72.6674L19.3523 73.7727C19.8989 74.597 20.4517 75.1433 20.7041 75.3955L22.1177 73.9806ZM45.851 78.3225C44.5027 78.3225 43.2089 78.6019 42.2101 79.5998L43.6237 81.0146C44.0898 80.5489 44.7581 80.3225 45.851 80.3225V78.3225ZM42.3173 79.5069C40.903 80.5667 40.6835 82.2642 40.954 83.8906L42.9269 83.5625C42.7091 82.2528 42.9778 81.5112 43.5166 81.1074L42.3173 79.5069ZM40.9404 83.7265C40.9404 85.2494 41.5632 86.4341 42.36 87.5005L43.9621 86.3034C43.2942 85.4095 42.9404 84.6428 42.9404 83.7265H40.9404ZM42.3613 87.5023C43.2577 88.6965 44.5207 89.37 45.851 89.37V87.37C45.2283 87.37 44.5292 87.0588 43.9608 86.3016L42.3613 87.5023ZM45.851 89.37C46.7962 89.37 47.5357 89.0168 48.1228 88.8224L47.4943 86.9237C46.6076 87.2172 46.3706 87.37 45.851 87.37V89.37ZM48.3227 88.7308C49.1138 88.2566 49.6885 87.6032 50.0479 86.7289C50.3943 85.8865 50.522 84.8849 50.522 83.7265H48.522C48.522 84.7633 48.4034 85.4692 48.1981 85.9684C48.0061 86.4356 47.724 86.7579 47.2944 87.0154L48.3227 88.7308ZM50.522 83.7265C50.522 81.8342 49.9763 80.3261 49.0014 79.3582L47.5922 80.7774C48.0822 81.2639 48.522 82.195 48.522 83.7265H50.522ZM48.868 79.247C47.9811 78.6298 46.9188 78.3012 45.8313 78.3227L45.8707 80.3223C46.5295 80.3093 47.1794 80.5084 47.7256 80.8886L48.868 79.247ZM25.5611 78.5709C24.2153 78.5709 22.9246 78.8447 21.9248 79.8437L23.3384 81.2585C23.8033 80.794 24.4657 80.5709 25.5611 80.5709V78.5709ZM22.0337 79.7495C20.6114 80.8104 20.3986 82.5112 20.6686 84.1345L22.6415 83.8064C22.4232 82.4937 22.6896 81.7553 23.2295 81.3527L22.0337 79.7495ZM20.655 83.9704C20.655 85.4918 21.2717 86.6768 22.0777 87.744L23.6737 86.5386C23.0059 85.6545 22.655 84.8883 22.655 83.9704H20.655ZM22.0777 87.744C22.974 88.9307 24.2249 89.6139 25.5611 89.6139V87.6139C24.9443 87.6139 24.2512 87.3033 23.6737 86.5386L22.0777 87.744ZM25.5611 89.6139C26.5118 89.6139 27.2488 89.2609 27.8347 89.0658L27.2027 87.1682C26.3238 87.461 26.0843 87.6139 25.5611 87.6139V89.6139ZM28.0328 88.9747C28.8246 88.5001 29.3982 87.846 29.7563 86.9714C30.1012 86.1292 30.2276 85.128 30.2276 83.9704H28.2276C28.2276 85.0082 28.1099 85.7143 27.9054 86.2136C27.7142 86.6806 27.4334 87.0022 27.0045 87.2593L28.0328 88.9747ZM30.2276 83.9704C30.2276 82.9167 30.097 82.0042 29.8357 81.2583C29.5759 80.5167 29.1631 79.8765 28.5577 79.477L27.4561 81.1463C27.5832 81.2302 27.7807 81.4414 27.9481 81.9195C28.1141 82.3931 28.2276 83.0683 28.2276 83.9704H30.2276ZM28.5781 79.4909C27.6899 78.8728 26.6291 78.5509 25.547 78.5711L25.5843 80.5707C26.2453 80.5584 26.8933 80.7551 27.4358 81.1325L28.5781 79.4909ZM25.5656 78.5709H25.5611V80.5709H25.5656V78.5709ZM25.5611 83.5069C25.7042 83.5069 25.7435 83.55 25.7442 83.5507C25.7446 83.5511 25.7863 83.5882 25.7863 83.7265H27.7863C27.7863 83.1331 27.5838 82.5604 27.1559 82.134C26.7282 81.7078 26.1549 81.5069 25.5611 81.5069V83.5069ZM25.7863 83.7265C25.7863 83.7352 25.7844 83.7835 25.7 83.8571C25.6596 83.8923 25.6144 83.9193 25.5756 83.9355C25.5324 83.9535 25.5272 83.9461 25.5656 83.9461V85.9461C26.0985 85.9461 26.6288 85.7009 27.0147 85.3643C27.4197 85.011 27.7863 84.4496 27.7863 83.7265H25.7863ZM25.5656 83.9461C25.4919 83.9461 25.4462 83.934 25.4223 83.9248C25.3994 83.916 25.3902 83.9077 25.3867 83.9042C25.3832 83.9007 25.3749 83.8915 25.3661 83.8685C25.3569 83.8445 25.345 83.7992 25.345 83.7265H23.345C23.345 84.3173 23.5446 84.8897 23.9712 85.3172C24.3983 85.745 24.9715 85.9461 25.5656 85.9461V83.9461ZM25.345 83.7265C25.345 83.6538 25.3569 83.6085 25.3661 83.5846C25.3749 83.5616 25.3832 83.5523 25.3867 83.5488C25.3902 83.5453 25.3994 83.537 25.4223 83.5282C25.4462 83.519 25.4919 83.5069 25.5656 83.5069V81.5069C24.9715 81.5069 24.3983 81.7081 23.9712 82.1358C23.5446 82.5633 23.345 83.1357 23.345 83.7265H25.345ZM45.3673 83.7509C45.5094 83.7509 45.5494 83.7937 45.5505 83.7948C45.5505 83.7948 45.5924 83.8312 45.5924 83.9704H47.5924C47.5924 83.3734 47.388 82.8 46.9585 82.3743C46.5301 81.9497 45.9575 81.7509 45.3673 81.7509V83.7509ZM45.5924 83.9704C45.5924 83.9323 45.5998 83.9374 45.582 83.9799C45.5659 84.0181 45.539 84.0631 45.5036 84.1033C45.4295 84.1878 45.3802 84.19 45.3718 84.19V86.19C46.0912 86.19 46.6523 85.8264 47.0065 85.423C47.3444 85.0382 47.5924 84.5073 47.5924 83.9704H45.5924ZM45.3718 84.19C45.298 84.19 45.2524 84.1779 45.2284 84.1687C45.2055 84.1599 45.1964 84.1516 45.1929 84.1482C45.1893 84.1446 45.181 84.1354 45.1722 84.1124C45.1631 84.0884 45.1511 84.0431 45.1511 83.9704H43.1511C43.1511 84.5612 43.3507 85.1337 43.7774 85.5611C44.2044 85.9889 44.7777 86.19 45.3718 86.19V84.19ZM45.1511 83.9704C45.1511 83.8948 45.1634 83.8481 45.1726 83.8238C45.1814 83.8007 45.1893 83.7924 45.1915 83.7901C45.1938 83.7878 45.2016 83.7803 45.2236 83.7719C45.2468 83.763 45.2924 83.7509 45.3673 83.7509V81.7509C44.7754 81.7509 44.2018 81.9495 43.7742 82.379C43.3471 82.808 43.1511 83.3814 43.1511 83.9704H45.1511ZM32.2575 92.7202L32.9899 94.1836L34.7784 93.2886L34.046 91.8251L32.2575 92.7202ZM33.0015 94.2061C33.3067 94.7793 33.7151 95.2913 34.2062 95.7164L35.5151 94.2041C35.21 93.94 34.9563 93.6221 34.7668 93.2661L33.0015 94.2061ZM34.1539 95.6676C34.2741 95.7878 34.5112 96.0259 34.8012 96.2323C35.0706 96.424 35.5254 96.692 36.0813 96.692V94.692C36.1272 94.692 36.1391 94.703 36.1079 94.6899C36.077 94.6769 36.0276 94.6503 35.961 94.6029C35.8227 94.5044 35.6914 94.3766 35.5675 94.2528L34.1539 95.6676ZM36.0813 96.692H36.5741V94.692H36.0813V96.692ZM36.5741 96.692C36.7816 96.692 37.0779 96.6964 37.349 96.6418C37.6899 96.5732 37.989 96.4191 38.2529 96.1555L36.8393 94.7406C36.8379 94.742 36.8553 94.7248 36.8899 94.7064C36.9248 94.6878 36.9513 94.6817 36.9543 94.6811C36.9543 94.6811 36.9525 94.6815 36.9486 94.6821C36.9447 94.6826 36.9388 94.6834 36.9307 94.6842C36.914 94.6859 36.8906 94.6876 36.8575 94.689C36.7867 94.6918 36.7019 94.692 36.5741 94.692V96.692ZM38.2529 96.1555C38.1962 96.2121 38.154 96.2264 38.1788 96.2153C38.2072 96.2025 38.2485 96.1879 38.3514 96.1541C38.4339 96.1269 38.578 96.0805 38.7191 96.0171C38.8638 95.952 39.0597 95.8462 39.2384 95.6676L37.8248 94.2528C37.8815 94.1962 37.9237 94.1818 37.8989 94.193C37.8705 94.2058 37.8292 94.2204 37.7264 94.2542C37.6438 94.2814 37.4998 94.3277 37.3587 94.3912C37.2139 94.4563 37.018 94.5621 36.8393 94.7406L38.2529 96.1555ZM39.2406 95.6654L39.9685 94.9337L38.5505 93.5232L37.8227 94.255L39.2406 95.6654ZM39.9663 94.9359C40.0784 94.8239 40.2547 94.6493 40.3976 94.4571C40.5314 94.2772 40.7478 93.9387 40.7478 93.4922H38.7478C38.7478 93.3847 38.7748 93.3092 38.7888 93.2771C38.8019 93.2468 38.8094 93.2413 38.7928 93.2635C38.7771 93.2846 38.7506 93.3166 38.7072 93.3631C38.6637 93.4097 38.6145 93.4593 38.5527 93.521L39.9663 94.9359ZM40.4546 94.1996C40.7028 93.9516 40.8249 93.6962 40.8862 93.5739C40.9194 93.5075 40.9298 93.4882 40.9389 93.4737C40.9419 93.4689 40.943 93.4675 40.9427 93.4679C40.9424 93.4684 40.9421 93.4686 40.9428 93.4679L39.5292 92.053C39.281 92.3011 39.1589 92.5564 39.0976 92.6788C39.0644 92.7452 39.054 92.7644 39.0449 92.7789C39.0419 92.7837 39.0408 92.7851 39.0411 92.7848C39.0414 92.7843 39.0417 92.7841 39.041 92.7848L40.4546 94.1996ZM41.236 92.7605C41.236 92.8626 41.2116 92.9305 41.2025 92.953C41.1927 92.9776 41.1858 92.9863 41.1899 92.9801C41.193 92.9755 41.1975 92.9698 41.201 92.9657C41.2023 92.9641 41.2023 92.9642 41.2004 92.9662C41.1994 92.9673 41.1979 92.9689 41.1957 92.9712C41.1946 92.9723 41.1933 92.9736 41.1919 92.9751C41.1912 92.9758 41.1904 92.9766 41.1896 92.9774C41.1892 92.9778 41.1887 92.9783 41.1883 92.9787C41.1881 92.9789 41.1879 92.9791 41.1876 92.9794C41.1875 92.9795 41.1874 92.9796 41.1873 92.9797C41.1871 92.9799 41.187 92.98 40.4802 92.2726C39.7734 91.5652 39.7732 91.5654 39.773 91.5656C39.773 91.5656 39.7728 91.5658 39.7727 91.5659C39.7724 91.5662 39.7722 91.5664 39.7719 91.5666C39.7714 91.5671 39.7709 91.5677 39.7704 91.5682C39.7693 91.5692 39.7682 91.5704 39.767 91.5716C39.7646 91.574 39.762 91.5767 39.7591 91.5797C39.7533 91.5856 39.7466 91.5928 39.7389 91.6009C39.7237 91.6173 39.7046 91.6383 39.683 91.6634C39.6408 91.7127 39.5843 91.7831 39.5263 91.87C39.432 92.0113 39.236 92.3377 39.236 92.7605H41.236ZM39.5859 91.8251C39.512 91.9728 39.389 92.1419 39.1922 92.404C39.0228 92.6297 38.7796 92.9484 38.6094 93.2886L40.3979 94.1836C40.4718 94.036 40.5948 93.8669 40.7916 93.6047C40.961 93.379 41.2042 93.0603 41.3744 92.7201L39.5859 91.8251ZM39.0567 92.8415C38.8444 92.9476 38.6744 93.0732 38.5449 93.1786C38.4806 93.2309 38.4216 93.2822 38.374 93.324C38.3223 93.3692 38.2871 93.4003 38.2512 93.4305C38.103 93.5552 38.1556 93.4724 38.283 93.4724V95.4724C38.9032 95.4724 39.3219 95.1434 39.5388 94.9609C39.8105 94.7323 39.8466 94.6826 39.9505 94.6307L39.0567 92.8415ZM37.8328 93.5795C37.5916 93.7011 37.3345 93.7163 36.8182 93.7163V95.7163C37.2785 95.7163 38.0069 95.7315 38.7332 95.3653L37.8328 93.5795ZM36.8182 93.7163C36.5556 93.7163 36.3872 93.7143 36.2576 93.6958C36.1993 93.6875 36.1806 93.6796 36.1867 93.6821C36.1952 93.6854 36.246 93.7067 36.3044 93.765L34.8908 95.1798C35.2436 95.5323 35.6905 95.6352 35.9751 95.6758C36.2727 95.7183 36.5926 95.7163 36.8182 95.7163V93.7163ZM35.5976 93.4724C35.5604 93.4724 35.5439 93.468 35.5409 93.4671C35.5383 93.4664 35.535 93.4654 35.5269 93.4606C35.5168 93.4546 35.4972 93.4413 35.463 93.4114C35.4259 93.3789 35.3866 93.3403 35.3233 93.2771L33.9097 94.692C34.1689 94.9509 34.6729 95.4724 35.5976 95.4724V93.4724ZM35.3255 93.2793L34.5931 92.543L33.1752 93.9535L33.9075 94.6898L35.3255 93.2793ZM34.5909 92.5409C34.5543 92.5042 34.4909 92.4169 34.3498 92.2054C34.2468 92.0511 34.066 91.7725 33.8585 91.5652L32.4449 92.98C32.4816 93.0167 32.545 93.104 32.6861 93.3155C32.7891 93.4698 32.9699 93.7484 33.1773 93.9557L34.5909 92.5409ZM29.2366 95.9161C27.7283 95.9161 26.4047 96.4198 25.2235 96.988C24.6383 97.2696 24.0494 97.587 23.5034 97.8701C22.9443 98.1601 22.408 98.4263 21.8661 98.6443C20.7935 99.0759 19.7367 99.303 18.5624 99.1216C17.3811 98.9391 15.9711 98.3259 14.2342 96.8794L12.9543 98.4162C14.8839 100.023 16.6204 100.845 18.2571 101.098C19.9007 101.352 21.3333 101.014 22.6126 100.5C23.2467 100.245 23.8522 99.9422 24.4242 99.6455C25.0095 99.342 25.5414 99.0545 26.0906 98.7903C27.178 98.2672 28.177 97.9161 29.2366 97.9161V95.9161ZM12.6073 97.4868C12.0859 100.683 12.6439 103.262 13.9918 105.209C15.3312 107.145 17.3703 108.34 19.6029 108.934C24.0155 110.11 29.4915 109.021 32.8182 106.228L31.5323 104.696C28.7467 107.035 23.9556 108.024 20.1176 107.002C18.2248 106.498 16.6427 105.525 15.6363 104.071C14.6384 102.629 14.1261 100.598 14.5812 97.8088L12.6073 97.4868ZM32.8357 106.213C35.0991 104.222 36.0958 101.643 35.4228 99.4341C34.7255 97.146 32.4157 95.7831 29.1951 95.9169L29.2782 97.9152C31.9257 97.8051 33.1649 98.8858 33.5096 100.017C33.8787 101.228 33.4106 103.044 31.5147 104.711L32.8357 106.213ZM42.2352 95.9169C39.0163 95.783 36.7085 97.1465 36.0134 99.4356C35.3427 101.644 36.3402 104.224 38.6031 106.217L39.925 104.716C38.0286 103.046 37.5591 101.229 37.9271 100.017C38.2706 98.8854 39.5072 97.8052 42.152 97.9152L42.2352 95.9169ZM38.6211 106.233C41.9458 109.023 47.4197 110.11 51.8305 108.933C54.0622 108.338 56.1004 107.142 57.4393 105.207C58.7866 103.26 59.3444 100.681 58.8229 97.4867L56.849 97.8089C57.3041 100.597 56.7921 102.628 55.7946 104.069C54.7886 105.523 53.2071 106.496 51.3151 107.001C47.4787 108.024 42.69 107.037 39.9069 104.701L38.6211 106.233ZM57.196 96.8794C55.4561 98.3284 54.0607 98.9401 52.9001 99.1219C51.7486 99.3022 50.7173 99.0771 49.6599 98.646C49.125 98.428 48.5942 98.1618 48.0356 97.8709C47.4891 97.5863 46.9004 97.2694 46.3062 96.9864C45.1061 96.4148 43.7559 95.9161 42.1936 95.9161V97.9161C43.3212 97.9161 44.3547 98.2722 45.4462 98.792C45.9977 99.0547 46.5317 99.3427 47.1117 99.6447C47.6796 99.9405 48.2791 100.243 48.9049 100.498C50.169 101.013 51.5812 101.353 53.2095 101.098C54.8288 100.844 56.5494 100.021 58.4759 98.4162L57.196 96.8794Z" fill="black" mask="url(#path-1-inside-1_1_7)"/>
</svg>
